<svg id="Layer_1" data-name="Layer 1" xmlns="http://www.w3.org/2000/svg" xmlns:xlink="http://www.w3.org/1999/xlink" viewBox="0 0 1069 154"><defs><linearGradient id="linear-gradient" x1="79.29" y1="114.91" x2="84.74" y2="99.93" gradientUnits="userSpaceOnUse"><stop offset="0" stop-color="#fff" stop-opacity="0"/><stop offset="1" stop-color="#fff"/></linearGradient></defs><title>qiuHeaderSVG</title><path d="M79.42,19.2A57.55,57.55,0,0,1,102,23.79a50.59,50.59,0,0,0-6.27,14.45c-4.41.09-13.6.1-19.9.13a34.81,34.81,0,0,0-8-18A58.16,58.16,0,0,1,79.42,19.2Z" style="fill:#077aab"/><path d="M132.37,100.24A57.44,57.44,0,0,1,123.89,114a62.3,62.3,0,0,0-9.23-6.53c-.85-.52-1.7-1-2.52-1.5l-3.34-1.87-1.12-.61c-.23-.11-.44-.23-.64-.34l-2.7-1.41h0l-.7-.36-.14-.07,0,0h0c.24-.16.49-.31.74-.46l2.38-1.51c2.19-1.42,4.53-3,6.65-4.4.53-.35,1-.7,1.53-1,.25-.16.48-.33.72-.49l.69-.47h0A50.67,50.67,0,0,0,132.37,100.24Z" style="fill:#077aab"/><path d="M136.91,70.86h0a6.41,6.41,0,0,1-2.63-12.25,55.8,55.8,0,0,0-3.07-7.39,4.36,4.36,0,0,1-4.46-7.46,59.19,59.19,0,0,0-5.36-6.54,7.1,7.1,0,0,1-11.82-5.32,7.17,7.17,0,0,1,1-3.63A57,57,0,0,0,102,23.79a50.59,50.59,0,0,0-6.27,14.45l2.09-.07c3.65-.26,1.33,2.48,1,3.06s-2.59,4.63-3.06,5.2-.46.87-.46.87a1.28,1.28,0,0,0,.16.81,25.42,25.42,0,0,0,3.18,2.63c.54.27,2.28,2.06,2.87,2.35s1,.56.82,1.24.15,4,1.8,5a14.17,14.17,0,0,0,4.3,1.78,33.15,33.15,0,0,0,4.88,1.15c1,.05,1.12-.11,1.79,0s.8,1.17.74,2.86-1.11,2.75-1.19,3.34.13.69,1.2.8,2.64,1.18,2.27,2-1.17,1.53-1.08,2a1.31,1.31,0,0,0,.67.83c.26.18,1.27.75,1,1.73s-1.63,3.14-.54,5.21,3.61,4.81,3.44,6.24a4.55,4.55,0,0,1-1.71,3.1c-.32.27-1.76,1.29-3.77,2.67a51,51,0,0,0,16.22,7.37A57.69,57.69,0,0,0,137.23,77,59.43,59.43,0,0,0,136.91,70.86ZM114.93,54a6.49,6.49,0,1,1,6.48-6.48A6.48,6.48,0,0,1,114.93,54Zm10.82,8.16a3.9,3.9,0,1,1,3.9-3.9A3.9,3.9,0,0,1,125.75,62.14Z" style="fill:#1cb2e7"/><path d="M121.41,47.5A6.48,6.48,0,1,1,114.93,41,6.48,6.48,0,0,1,121.41,47.5Z" style="fill:#fff"/><circle cx="116.63" cy="31.89" r="6.31" style="fill:#1cb2e7"/><circle cx="136.86" cy="64.45" r="5.6" style="fill:#1cb2e7"/><circle cx="142.6" cy="48.45" r="3.69" style="fill:#1cb2e7"/><circle cx="129.26" cy="47.29" r="3.56" style="fill:#1cb2e7"/><circle cx="132.85" cy="35.14" r="3.78" style="fill:#1cb2e7"/><path d="M123.89,114q-1.14,1.36-2.34,2.64a57.89,57.89,0,0,1-12.63,10.14C97.25,114.52,70,93.42,27.84,103.11c0,0,0,0,0,0-.59-1.19-1.14-2.37-1.66-3.6,7.28-3.79,17.29-5.94,17.29-5.94-.73-1.27-1.38-2.52-2-3.75l-2.87-8.35c-.28-1.25-.49-2.48-.64-3.69a33.09,33.09,0,0,1,1-13A6.48,6.48,0,1,0,44.56,55a7.07,7.07,0,0,0-1,.08,41.3,41.3,0,0,1,6.37-7.62,3.76,3.76,0,0,0,6-4.5l.13-.08c8.25-4.4,12.36-4.17,13.26-4.35.28-.06,2.94-.09,6.53-.11,6.3,0,15.49,0,19.9-.13l2.09-.07c3.65-.26,1.33,2.48,1,3.06s-2.59,4.63-3.06,5.2-.46.87-.46.87a1.28,1.28,0,0,0,.16.81,25.42,25.42,0,0,0,3.18,2.63c.54.27,2.28,2.06,2.87,2.35s1,.56.82,1.24.15,4,1.8,5a14.17,14.17,0,0,0,4.3,1.78,33.15,33.15,0,0,0,4.88,1.15c1,.05,1.12-.11,1.79,0s.8,1.17.74,2.86-1.11,2.75-1.19,3.34.13.69,1.2.8,2.64,1.18,2.27,2-1.17,1.53-1.08,2a1.31,1.31,0,0,0,.67.83c.26.18,1.27.75,1,1.73s-1.63,3.14-.54,5.21,3.61,4.81,3.44,6.24a4.55,4.55,0,0,1-1.71,3.1c-.32.27-1.76,1.29-3.76,2.67h0l-.69.47c-.24.16-.47.33-.72.49-.49.34-1,.69-1.53,1-2.12,1.42-4.46,3-6.65,4.4l-2.38,1.51c-.25.15-.5.3-.74.46h0l0,0,.14.07.7.36h0l2.7,1.41c.2.11.41.23.64.34l1.12.61,3.34,1.87c.82.48,1.67,1,2.52,1.5A62.3,62.3,0,0,1,123.89,114Z" style="fill:#fff"/><path d="M104.18,100.78l-.73.46h0C103.68,101.08,103.93,100.93,104.18,100.78Z" style="fill:#fff"/><path d="M106.56,99.27l-2.38,1.51Z" style="fill:#fff"/><path d="M116.15,92.87h0l-.69.46Z" style="fill:#fff"/><path d="M70.31,62.93c0,.06,0,.11-.07.16a3,3,0,0,1-.15.31c0,.1-.11.2-.17.3a.3.3,0,0,1,0,.08,2.82,2.82,0,0,1-.21.31,2.86,2.86,0,0,1-.22.3,4.76,4.76,0,0,1-.57.62l-.25.22a5.61,5.61,0,0,1-.55.41l-.28.17-.3.16a3,3,0,0,1-.31.15,1.7,1.7,0,0,1-.24.09l-.16.07-.23.07-.15.05-.16,0a5.67,5.67,0,0,1-.84.15H65.2l-.36,0a5.9,5.9,0,1,1,5.91-5.9,5.71,5.71,0,0,1-.11,1.07c0,.11,0,.23-.07.34a5.53,5.53,0,0,1-.2.66Z" style="fill:#077aab"/><path d="M70.37,62.78a5.53,5.53,0,0,0,.2-.66A5.53,5.53,0,0,1,70.37,62.78Z" style="fill:#1cb2e7"/><path d="M129.65,58.24a3.9,3.9,0,1,1-3.9-3.89A3.91,3.91,0,0,1,129.65,58.24Z" style="fill:#fff"/><path d="M141.53,134.6h-26a64.38,64.38,0,0,0-6.57-7.88C97.25,114.52,70,93.42,27.84,103.11c.76-.41,44.16-23.3,93.71,13.48A149.44,149.44,0,0,1,141.53,134.6Z" style="fill:#1cb2e7"/><path d="M105.27,128.72h0a57.86,57.86,0,0,1-75.75-22.54S71.69,95.34,105.27,128.72Z" style="fill:#077aab"/><path d="M27.84,103.11c42.2-9.69,69.41,11.41,81.08,23.61a64.38,64.38,0,0,1,6.57,7.88h12.38c-46.13-54.57-100-31.49-100-31.49" style="fill:url(#linear-gradient)"/><path d="M51,84.11a6.48,6.48,0,0,1-6.48,6.48,6.38,6.38,0,0,1-3.05-.76c.58,1.23,1.22,2.48,2,3.75,0,0-10,2.15-17.29,6h0A57.62,57.62,0,0,1,21.62,77c0-1.65.07-3.29.21-4.91A34.88,34.88,0,0,0,38,77.79a33.12,33.12,0,0,0,.63,3.69,6.5,6.5,0,0,1,4.08-3.59,6.67,6.67,0,0,1,1.85-.26,5.51,5.51,0,0,1,.81.05A6.48,6.48,0,0,1,51,84.11Z" style="fill:#077aab"/><path d="M74.47,66.79a3.66,3.66,0,1,1-3.66,3.66A3.66,3.66,0,0,1,74.47,66.79Z" style="fill:#077aab"/><path d="M54.89,77.52a3.77,3.77,0,1,1,3.73-4.25,3.87,3.87,0,0,1,0,.48A3.76,3.76,0,0,1,54.89,77.52Z" style="fill:#077aab"/><path d="M74.28,90.34a3.89,3.89,0,1,1,3.89-3.89A3.89,3.89,0,0,1,74.28,90.34Z" style="fill:#077aab"/><path d="M56,42.84l-.13.07a3.76,3.76,0,0,1-6,4.51A40.45,40.45,0,0,0,43.53,55a5.89,5.89,0,0,1,1-.09A6.49,6.49,0,1,1,39,64.82a33,33,0,0,0-1,13A34.88,34.88,0,0,1,21.83,72.1a57.83,57.83,0,0,1,46-51.73,34.81,34.81,0,0,1,8,18c-3.59,0-6.24.05-6.53.11C68.4,38.66,64.29,38.43,56,42.84Z" style="fill:#1cb2e7"/><text transform="translate(476.78 67.49)" style="font-size:30.159940719604492px;fill:#077aab;font-family:GoudyOldStyleT-Bold, Goudy Old Style;font-weight:700">QAIWAN INTERNATIONAL UNIVERSITY</text><text transform="translate(477.3 100.69)" style="font-size:26.361570358276367px;fill:#797e83;font-family:GoudyOldStyleT-Regular, Goudy Old Style">UTM FRANCHISE</text><path d="M212.3,25.09q14.7,0,23.68,9t9,23.55a39,39,0,0,1-4.68,19A29.31,29.31,0,0,1,233.72,85a40.31,40.31,0,0,1-10.09,6c-1.16.51-1.75,1-1.78,1.3s1,1.27,3,2.34l5.4,2.87a16.76,16.76,0,0,0,8,2.1c1.84,0,3.86-.89,6.08-2.65a1.83,1.83,0,0,1,.87-.44c.26,0,.53.14.82.53a1.56,1.56,0,0,1,.39,1.06q-.09,1-3.38,3.91-6.42,5.61-12.32,5.61a20.79,20.79,0,0,1-7.54-1.55,80.32,80.32,0,0,1-10.87-5.65q-8.4-4.93-11.21-6.21A12.9,12.9,0,0,0,195.78,93a8.28,8.28,0,0,0-6.59,3.19,11.66,11.66,0,0,0-2.68,7.78c0,1-.42,1.54-1.26,1.54-1,0-1.55-.67-1.55-2l-.14-3.72.67-3.18a20.31,20.31,0,0,1,4.94-7c.32-.32.48-.56.48-.73s-.74-.88-2.21-2a27.23,27.23,0,0,1-8.55-11.18,37.14,37.14,0,0,1-3.21-15.24q0-15.8,10.15-25.58T212.3,25.09Zm-4.88,3.72q-9.39,0-14.86,6.81t-5.47,18.46q0,15.66,7.33,25.77T213.08,90a18.35,18.35,0,0,0,15.3-7.49q5.76-7.48,5.76-19.86,0-14.1-7.79-24T207.42,28.81Z" style="fill:#077aab"/><path d="M291,91.34l.39,4.83a9.19,9.19,0,0,0,2.83,5.69,8.53,8.53,0,0,0,5.87,2c1.57,0,2.36.49,2.36,1.48s-1,1.42-3.14,1.42c-.9,0-2.19-.09-3.86-.26a95.75,95.75,0,0,0-10.2-.71,44.72,44.72,0,0,0-7.63.51,20.86,20.86,0,0,1-3.48.46,1.28,1.28,0,0,1-1.35-1l-.1-.4,1.4-1.13q3.48-1.26,4.62-3.06t1.13-6l.05-4.29V38.36c0-3-.51-5.06-1.54-6.31s-2.92-2.09-5.66-2.51a13,13,0,0,1-3.16-.76,1.29,1.29,0,0,1-.7-1.25c0-.92.38-1.36,1.16-1.33a24.43,24.43,0,0,1,2.61.39,30.14,30.14,0,0,0,5.84.39c1.81,0,4-.11,6.72-.32l3.52-.28q5-.37,7.64-.37c1.06,0,1.59.39,1.59,1.18a2,2,0,0,1-.24,1.18,2,2,0,0,1-1.21.44Q293,29.4,292,30.74c-.66.91-1,2.74-1,5.51Z" style="fill:#077aab"/><path d="M378.91,25.77a3.63,3.63,0,0,1,1.12.14,37.33,37.33,0,0,0,3.82.29l5.13.25,4.75-.2c1.61-.13,3-.27,4.26-.43a13.29,13.29,0,0,1,1.59-.1A1.14,1.14,0,0,1,400.89,27c0,.66-.4,1.05-1.21,1.18l-1.83.34q-3.77.63-3.77,8.06l.05,4.21.17,19.94c0,9.3,0,16.24-.56,22.66a28.11,28.11,0,0,1-4.42,13.17c-4.87,7.5-14.2,11.1-25.82,11.1q-12.31,0-19.13-4.64-9.24-6.31-9.23-24.52l.53-32.69L335.53,37a11.48,11.48,0,0,0-.66-4.63,5.24,5.24,0,0,0-2.68-2.32,19,19,0,0,0-5.31-1.55Q325,28.24,325,27.05c0-.85.55-1.28,1.64-1.28.36,0,1,.05,2,.14q6.13.59,9.46.58c3.15,0,6.63-.17,10.46-.53,1.54-.13,2.65-.19,3.33-.19,1.67,0,2.51.47,2.51,1.42a1.26,1.26,0,0,1-.39,1.08,5.4,5.4,0,0,1-1.83.59q-3,.59-4,2.2t-1.25,6.3l-.78,26.19.1,8.55q0,11.7,1.23,16.64a16.67,16.67,0,0,0,5.1,8.48q5.85,5.37,15,5.36,9.31,0,15.07-5.5,3.87-3.72,5.48-10.87t1.62-20.54V61.76l-.24-23.91a10.37,10.37,0,0,0-2.8-7,9.26,9.26,0,0,0-6.81-2.49c-1.26,0-1.89-.48-1.89-1.43C378,26.2,378.3,25.8,378.91,25.77Z" style="fill:#077aab"/><text transform="translate(192.6 125.8)" style="font-size:8.930937767028809px;fill:#797e83;font-family:HelveticaNeue-Bold, Helvetica Neue;font-weight:700">QAIWAN</text><text transform="translate(248.7 125.8)" style="font-size:8.930937767028809px;fill:#797e83;font-family:HelveticaNeue-Bold, Helvetica Neue;font-weight:700">INTERNATIONAL</text><text transform="translate(336.07 125.8)" style="font-size:8.930937767028809px;fill:#797e83;font-family:HelveticaNeue-Bold, Helvetica Neue;font-weight:700">UNIVERSITY</text><rect x="441.97" y="21.84" width="1.67" height="110.32" style="fill:#797e83"/></svg>